<svg width="33" height="33" viewBox="0 0 33 33" fill="none" xmlns="http://www.w3.org/2000/svg">
<path d="M9.86979 4.6085C10.9678 3.75629 12.3083 3.29666 13.6857 3.30005C14.1614 3.28911 14.6321 3.40132 15.0542 3.62628C15.4764 3.85124 15.8363 4.18169 16.1008 4.58705C16.3653 4.18169 16.7252 3.85124 17.1474 3.62628C17.5695 3.40132 18.0402 3.28911 18.5159 3.30005C19.8933 3.29666 21.2338 3.75629 22.3318 4.6085C23.1771 5.2817 23.8292 6.21394 24.0594 7.34089C24.5875 7.38214 25.0706 7.60655 25.4763 7.94479C26.0914 8.45629 26.539 9.22354 26.8207 10.0353C27.2619 11.2976 27.381 12.9063 26.9238 14.2758C27.0397 14.3319 27.154 14.3979 27.2651 14.4738C27.7079 14.7758 28.0444 15.2081 28.2923 15.7179C28.7802 16.7162 28.9814 18.1088 28.9814 19.8C28.9814 21.6827 28.2811 22.9466 27.3923 23.727C26.9008 24.1589 26.3208 24.4719 25.6953 24.6428C25.5343 25.5635 25.0834 26.6294 24.3766 27.5336C23.4589 28.7133 22.0356 29.7 20.126 29.7C18.6125 29.7 17.4082 28.842 16.6257 28.0005C16.4386 27.7996 16.2633 27.5875 16.1008 27.3653C15.9383 27.5875 15.763 27.7996 15.5759 28.0005C14.7934 28.842 13.5907 29.7 12.0756 29.7C10.166 29.7 8.74434 28.7133 7.82499 27.5336C7.16447 26.693 6.71206 25.7012 6.50633 24.6428C5.88078 24.4719 5.30078 24.1589 4.8093 23.727C3.92054 22.9466 3.22015 21.681 3.22015 19.8C3.22015 18.1088 3.42302 16.7145 3.90927 15.7179C4.13972 15.2179 4.49387 14.7885 4.9365 14.4722C5.04524 14.3984 5.15936 14.3333 5.27784 14.2775C4.82057 12.9047 4.93972 11.2976 5.38088 10.0353C5.66265 9.22354 6.11025 8.45629 6.7253 7.94479C7.13104 7.60655 7.61406 7.38379 8.14217 7.34089C8.37402 6.21394 9.02611 5.2817 9.8714 4.6085H9.86979ZM15.2958 7.42504V7.40854L15.2925 7.32605C15.2688 6.8959 15.1853 6.47142 15.0446 6.06545C14.9444 5.75898 14.7737 5.48168 14.5471 5.25695C14.3093 5.04472 14.0007 4.93478 13.6857 4.95005C12.6664 4.94646 11.6738 5.28361 10.8584 5.91035C10.1113 6.506 9.66048 7.31284 9.66048 8.25004C9.66038 8.3807 9.63001 8.50946 9.57185 8.62573C9.5137 8.742 9.42943 8.84245 9.32598 8.91882C9.22254 8.99519 9.10287 9.04528 8.97684 9.06498C8.8508 9.08469 8.722 9.07343 8.60104 9.03214C8.29835 8.92984 8.02786 8.9876 7.73965 9.2252C7.42408 9.4892 7.11655 9.9578 6.89597 10.5897C6.44676 11.88 6.49345 13.4426 7.11011 14.393C7.19818 14.5283 7.24523 14.6874 7.24536 14.85H8.45292C9.41371 14.85 10.3352 15.2412 11.0145 15.9374C11.6939 16.6336 12.0756 17.5779 12.0756 18.5625V19.1153C12.6127 19.3099 13.0654 19.6929 13.3537 20.1964C13.642 20.7 13.7472 21.2918 13.6509 21.8673C13.5546 22.4427 13.2628 22.9647 12.8272 23.341C12.3916 23.7173 11.8403 23.9237 11.2706 23.9237C10.7008 23.9237 10.1495 23.7173 9.71388 23.341C9.2783 22.9647 8.98656 22.4427 8.89022 21.8673C8.79388 21.2918 8.89914 20.7 9.18741 20.1964C9.47568 19.6929 9.92838 19.3099 10.4655 19.1153V18.5625C10.4655 17.424 9.56387 16.5 8.45292 16.5H5.63528C5.53903 16.4999 5.44359 16.482 5.35351 16.4472L5.34868 16.4571C5.02988 17.1089 4.83023 18.1913 4.83023 19.8C4.83023 21.2174 5.33741 22.016 5.85747 22.473C6.41616 22.9647 7.03605 23.1 7.24536 23.1C7.45887 23.1 7.66363 23.187 7.81461 23.3417C7.96558 23.4964 8.0504 23.7062 8.0504 23.925C8.0504 24.5322 8.37241 25.5932 9.08085 26.504C9.77157 27.3867 10.765 28.05 12.0756 28.05C12.9772 28.05 13.7855 27.5336 14.4102 26.862C14.7177 26.532 14.9576 26.1905 15.1138 25.91C15.1849 25.7856 15.2458 25.6553 15.2958 25.5206V12.375H13.5488C13.3589 12.9255 12.9852 13.3894 12.4938 13.6848C12.0024 13.9803 11.4249 14.0881 10.8634 13.9894C10.3019 13.8907 9.79253 13.5917 9.42532 13.1453C9.05811 12.6989 8.8567 12.1339 8.8567 11.55C8.8567 10.9662 9.05811 10.4012 9.42532 9.95478C9.79253 9.50839 10.3019 9.20942 10.8634 9.11069C11.4249 9.01196 12.0024 9.11984 12.4938 9.41525C12.9852 9.71066 13.3589 10.1746 13.5488 10.725H15.2958V7.42504ZM16.9058 23.9234V25.5189C16.9558 25.6537 17.0167 25.7839 17.0878 25.9083C17.2456 26.1888 17.4839 26.5304 17.7898 26.8604C18.4161 27.5319 19.226 28.0484 20.126 28.0484C21.4366 28.0484 22.43 27.3851 23.1208 26.5023C23.8292 25.5915 24.1512 24.5306 24.1512 23.9234C24.1512 23.7046 24.236 23.4947 24.387 23.34C24.538 23.1853 24.7427 23.0984 24.9562 23.0984C25.1656 23.0984 25.7854 22.9631 26.3441 22.4714C26.8642 22.0143 27.3714 21.2157 27.3714 19.7984C27.3714 18.1896 27.1701 17.1089 26.8529 16.4555C26.7468 16.2122 26.5803 16.0017 26.3699 15.845C26.1886 15.7262 25.9763 15.6669 25.7613 15.675C25.6157 15.675 25.4728 15.6344 25.3479 15.5577C25.223 15.481 25.1207 15.371 25.052 15.2394C24.9832 15.1079 24.9506 14.9597 24.9576 14.8106C24.9645 14.6616 25.0108 14.5172 25.0915 14.393C25.7098 13.4426 25.7548 11.88 25.3056 10.5897C25.0851 9.9578 24.7775 9.48754 24.462 9.2252C24.1737 8.9876 23.9033 8.92819 23.6006 9.03214C23.4796 9.07343 23.3508 9.08469 23.2248 9.06498C23.0987 9.04528 22.9791 8.99519 22.8756 8.91882C22.7722 8.84245 22.6879 8.742 22.6297 8.62573C22.5716 8.50946 22.5412 8.3807 22.5411 8.25004C22.5411 7.31284 22.0903 6.506 21.3416 5.91035C20.5266 5.28395 19.5346 4.94682 18.5159 4.95005C18.2009 4.93478 17.8923 5.04472 17.6545 5.25695C17.4272 5.48142 17.256 5.75876 17.1554 6.06545C17.0021 6.49643 16.9178 6.94999 16.9058 7.40854V22.275H18.1134C19.2244 22.275 20.126 21.351 20.126 20.2125V17.1848C19.5889 16.9902 19.1362 16.6072 18.8479 16.1036C18.5596 15.6001 18.4544 15.0082 18.5507 14.4328C18.647 13.8574 18.9388 13.3354 19.3744 12.9591C19.81 12.5827 20.3613 12.3763 20.931 12.3763C21.5008 12.3763 22.0521 12.5827 22.4877 12.9591C22.9233 13.3354 23.215 13.8574 23.3114 14.4328C23.4077 15.0082 23.3025 15.6001 23.0142 16.1036C22.7259 16.6072 22.2732 16.9902 21.7361 17.1848V20.2125C21.7361 21.1972 21.3544 22.1414 20.675 22.8377C19.9956 23.5339 19.0742 23.925 18.1134 23.925H16.9058V23.9234ZM10.4655 11.55C10.4655 11.7688 10.5503 11.9787 10.7013 12.1334C10.8523 12.2881 11.057 12.375 11.2706 12.375C11.4841 12.375 11.6888 12.2881 11.8398 12.1334C11.9908 11.9787 12.0756 11.7688 12.0756 11.55C12.0756 11.3312 11.9908 11.1214 11.8398 10.9667C11.6888 10.812 11.4841 10.725 11.2706 10.725C11.057 10.725 10.8523 10.812 10.7013 10.9667C10.5503 11.1214 10.4655 11.3312 10.4655 11.55ZM20.931 15.675C21.1446 15.675 21.3493 15.5881 21.5003 15.4334C21.6513 15.2787 21.7361 15.0688 21.7361 14.85C21.7361 14.6312 21.6513 14.4214 21.5003 14.2667C21.3493 14.112 21.1446 14.025 20.931 14.025C20.7175 14.025 20.5128 14.112 20.3618 14.2667C20.2108 14.4214 20.126 14.6312 20.126 14.85C20.126 15.0688 20.2108 15.2787 20.3618 15.4334C20.5128 15.5881 20.7175 15.675 20.931 15.675ZM11.2706 20.625C11.057 20.625 10.8523 20.712 10.7013 20.8667C10.5503 21.0214 10.4655 21.2312 10.4655 21.45C10.4655 21.6688 10.5503 21.8787 10.7013 22.0334C10.8523 22.1881 11.057 22.275 11.2706 22.275C11.4841 22.275 11.6888 22.1881 11.8398 22.0334C11.9908 21.8787 12.0756 21.6688 12.0756 21.45C12.0756 21.2312 11.9908 21.0214 11.8398 20.8667C11.6888 20.712 11.4841 20.625 11.2706 20.625Z" fill="#061334"/>
</svg>
