<svg width="154" height="26" viewBox="0 0 154 26" fill="none" xmlns="http://www.w3.org/2000/svg">
<path d="M0.7 20V4.76L0.4 2.36H4.96L11.74 14.36L18.76 2.36H22.81V20H18.85V8.81H18.52L17.35 11.42L13.57 18.2H9.94L6.16 11.42L4.96 8.81H4.66V20H0.7ZM30.6768 20C29.6768 20 28.9068 19.87 28.3668 19.61C27.8268 19.35 27.4368 19.02 27.1968 18.62C26.9768 18.22 26.8368 17.8 26.7768 17.36C26.7368 16.92 26.7168 16.52 26.7168 16.16V10.4C26.7168 10.1 26.7368 9.74 26.7768 9.32C26.8368 8.88 26.9768 8.45 27.1968 8.03C27.4368 7.61 27.8268 7.26 28.3668 6.98C28.9268 6.7 29.6968 6.56 30.6768 6.56H37.1268C38.4468 6.56 39.4768 6.69 40.2168 6.95C40.9768 7.19 41.5068 7.59 41.8068 8.15C42.1268 8.71 42.2868 9.46 42.2868 10.4V14.84H37.0368C35.2368 14.84 33.7668 14.8 32.6268 14.72C31.5068 14.64 30.7568 14.59 30.3768 14.57V16.22C30.3568 17.02 30.8368 17.42 31.8168 17.42H33.3468C34.4268 17.42 35.4768 17.41 36.4968 17.39C37.5368 17.35 38.4868 17.31 39.3468 17.27C40.2068 17.21 40.8968 17.16 41.4168 17.12L42.6168 19.07C42.6168 19.69 40.6468 20 36.7068 20H30.6768ZM30.3768 12.26H38.6268V10.34C38.6268 9.94 38.5768 9.66 38.4768 9.5C38.3968 9.34 38.1368 9.24 37.6968 9.2C37.2568 9.16 36.5068 9.14 35.4468 9.14H31.8168C30.8568 9.14 30.3768 9.54 30.3768 10.34V12.26ZM45.6203 20V6.56H48.0803L48.8303 6.92C49.4103 6.82 50.1203 6.74 50.9603 6.68C51.8003 6.6 52.8003 6.56 53.9603 6.56H55.4603C56.0403 6.56 56.6003 6.64 57.1403 6.8C57.6803 6.94 58.0803 7.15 58.3403 7.43C58.8603 7.17 59.5803 6.96 60.5003 6.8C61.4203 6.64 62.6203 6.56 64.1003 6.56H65.6003C66.6003 6.56 67.3703 6.7 67.9103 6.98C68.4503 7.26 68.8303 7.61 69.0503 8.03C69.2903 8.45 69.4303 8.88 69.4703 9.32C69.5303 9.74 69.5603 10.1 69.5603 10.4V20H65.9003V10.34C65.9003 9.54 65.4203 9.14 64.4603 9.14H60.2603C59.9403 9.14 59.7203 9.18 59.6003 9.26C59.4803 9.34 59.4203 9.52 59.4203 9.8V20H55.7603V10.34C55.7603 9.54 55.2803 9.14 54.3203 9.14H50.1803C49.8003 9.14 49.5503 9.18 49.4303 9.26C49.3303 9.32 49.2803 9.5 49.2803 9.8V20H45.6203ZM76.6729 20C75.6729 20 74.9029 19.87 74.3629 19.61C73.8229 19.35 73.4329 19.02 73.1929 18.62C72.9729 18.22 72.8329 17.8 72.7729 17.36C72.7329 16.92 72.7129 16.52 72.7129 16.16V10.4C72.7129 10.1 72.7329 9.74 72.7729 9.32C72.8329 8.88 72.9729 8.45 73.1929 8.03C73.4329 7.61 73.8229 7.26 74.3629 6.98C74.9229 6.7 75.6929 6.56 76.6729 6.56H83.1229C84.4429 6.56 85.4729 6.69 86.2129 6.95C86.9729 7.19 87.5029 7.59 87.8029 8.15C88.1229 8.71 88.2829 9.46 88.2829 10.4V14.84H83.0329C81.2329 14.84 79.7629 14.8 78.6229 14.72C77.5029 14.64 76.7529 14.59 76.3729 14.57V16.22C76.3529 17.02 76.8329 17.42 77.8129 17.42H79.3429C80.4229 17.42 81.4729 17.41 82.4929 17.39C83.5329 17.35 84.4829 17.31 85.3429 17.27C86.2029 17.21 86.8929 17.16 87.4129 17.12L88.6129 19.07C88.6129 19.69 86.6429 20 82.7029 20H76.6729ZM76.3729 12.26H84.6229V10.34C84.6229 9.94 84.5729 9.66 84.4729 9.5C84.3929 9.34 84.1329 9.24 83.6929 9.2C83.2529 9.16 82.5029 9.14 81.4429 9.14H77.8129C76.8529 9.14 76.3729 9.54 76.3729 10.34V12.26ZM91.9164 20V3.38L91.6164 0.98H95.5764V20H91.9164ZM100.435 25.88C99.475 25.88 98.595 25.77 97.795 25.55C96.995 25.33 96.455 25.13 96.175 24.95L97.075 22.25C97.415 22.39 97.895 22.55 98.515 22.73C99.155 22.93 99.875 23.03 100.675 23.03H101.005C101.925 23.03 102.735 22.75 103.435 22.19C104.155 21.65 104.705 20.92 105.085 20H103.585L97.705 6.56H101.905L105.355 14.84L106.135 17H106.435L107.215 14.84L110.725 6.56H114.805L114.325 8.39C113.945 9.17 113.505 10.07 113.005 11.09C112.525 12.09 112.025 13.13 111.505 14.21C110.985 15.29 110.475 16.33 109.975 17.33C109.495 18.33 109.065 19.22 108.685 20C108.105 21.2 107.465 22.24 106.765 23.12C106.085 24 105.295 24.68 104.395 25.16C103.515 25.64 102.465 25.88 101.245 25.88H100.435ZM122.12 20C120.6 20 119.56 19.68 119 19.04C118.44 18.4 118.16 17.44 118.16 16.16V9.14H115.7V6.56H116.96C117.34 6.56 117.61 6.5 117.77 6.38C117.95 6.26 118.08 6.02 118.16 5.66L118.76 2.45H121.82V6.56H128.06V9.14H121.82V16.19C121.82 16.69 121.94 17.02 122.18 17.18C122.42 17.34 122.78 17.42 123.26 17.42H127.49L127.79 19.7C127.37 19.76 126.73 19.83 125.87 19.91C125.01 19.97 124.07 20 123.05 20H122.12ZM132.594 4.67C131.854 4.67 131.314 4.52 130.974 4.22C130.634 3.92 130.464 3.42 130.464 2.72C130.464 2 130.624 1.5 130.944 1.22C131.284 0.919999 131.834 0.769999 132.594 0.769999C133.354 0.769999 133.904 0.919999 134.244 1.22C134.584 1.5 134.754 2 134.754 2.72C134.754 3.4 134.584 3.9 134.244 4.22C133.904 4.52 133.354 4.67 132.594 4.67ZM130.764 20V6.56H134.424V20H130.764ZM136.845 20L137.445 18.8L142.635 13.25L136.845 6.56H141.405L145.065 11.21H145.365L149.085 6.56H153.645L153.165 7.52L147.675 13.25L153.645 20H149.055L145.365 15.5H145.065L141.405 20H136.845Z" fill="#001335"/>
</svg>
