<svg width="81" height="29" viewBox="0 0 81 29" fill="none" xmlns="http://www.w3.org/2000/svg">
<path d="M13.1477 21.3215V24.4926M46.6191 16.3805V19.5516M10.9475 19.1829V22.354M15.3479 19.1829V22.354M8.96729 16.3068V19.4779M17.4747 21.3215V24.4926M13.1477 16.3068V19.4779M41.9253 16.3805V19.5516M44.1989 18.5929V21.764M48.7459 18.5929V21.764M46.6191 20.8791V24.0501M50.9461 20.8791V24.0501M13.3677 2L2 14.0944V17.8555L11.1675 27H22.1685L29.2091 17.8555H36.0297L43.9504 27H54.9514L63.8989 17.8555V14.0944L76 2H72.4063L60.3786 14.0944H5.52032L16.9613 2H13.3677Z" stroke="#001638" stroke-width="4"/>
</svg>
